<?xml version="1.0" encoding="iso-8859-1"?>
<!-- Generator: Adobe Illustrator 19.0.0, SVG Export Plug-In . SVG Version: 6.00 Build 0)  -->
<svg version="1.1" id="Layer_1" xmlns="http://www.w3.org/2000/svg" xmlns:xlink="http://www.w3.org/1999/xlink" x="0px" y="0px"
	 viewBox="0 0 512 512" style="enable-background:new 0 0 512 512;" xml:space="preserve">
<g>
	<g>
		<g>
			<path d="M510.313,195.692c-4.513-13.888-16.865-22.864-31.468-22.864H332.647L287.469,33.786
				c-4.512-13.889-16.865-22.864-31.468-22.864c-14.604,0-26.955,8.973-31.467,22.864l-45.178,139.042H33.155
				c-14.604,0-26.955,8.974-31.468,22.864c-4.512,13.889,0.206,28.409,12.02,36.991l118.277,85.934L86.806,457.661
				c-3.323,10.223-1.673,20.98,4.526,29.509c6.329,8.709,16.432,13.909,27.025,13.908c6.886,0,13.583-2.221,19.366-6.423
				l118.277-85.934l118.277,85.934c5.786,4.203,12.483,6.424,19.369,6.423c10.594,0,20.697-5.2,27.025-13.912
				c6.196-8.529,7.846-19.284,4.524-29.505l-45.178-139.043l118.277-85.933C510.108,224.101,514.825,209.582,510.313,195.692z
				 M486.629,216.63L362.52,306.801c-3.478,2.526-4.932,7.005-3.604,11.091l47.405,145.899c1.736,5.347,0.031,9.32-1.707,11.71
				c-2.567,3.536-6.772,5.731-10.971,5.731c-2.706,0-5.297-0.885-7.703-2.633l-124.108-90.171c-1.739-1.264-3.785-1.895-5.832-1.895
				c-2.046,0-4.093,0.633-5.832,1.895l-124.109,90.17c-2.405,1.747-4.998,2.634-7.704,2.634c-4.198,0.001-8.401-2.195-10.97-5.727
				c-1.738-2.392-3.444-6.366-1.707-11.713l47.405-145.901c1.328-4.088-0.126-8.565-3.604-11.091L25.37,216.629
				c-5.739-4.168-6.248-10.381-4.811-14.806c1.437-4.424,5.502-9.152,12.596-9.152h153.408c4.299,0,8.109-2.767,9.436-6.856
				l47.405-145.899c2.193-6.748,7.944-9.15,12.596-9.15c4.652,0,10.403,2.404,12.596,9.15l47.405,145.899
				c1.328,4.089,5.138,6.856,9.436,6.856h153.408c7.094,0,11.158,4.728,12.596,9.152
				C492.877,206.248,492.368,212.461,486.629,216.63z"/>
			<path d="M306.849,270.025c0-28.038-22.81-50.849-50.849-50.849c-28.038,0-50.849,22.812-50.849,50.849
				c0,28.038,22.812,50.849,50.849,50.849C284.039,320.874,306.849,298.062,306.849,270.025z M255.999,301.03
				c-17.097,0-31.006-13.909-31.006-31.006c0-17.097,13.909-31.006,31.006-31.006s31.006,13.909,31.006,31.006
				C287.005,287.121,273.097,301.03,255.999,301.03z"/>
			<path d="M255.999,200.572c5.481,0,9.922-4.443,9.922-9.922v-71.933c0-5.479-4.441-9.922-9.922-9.922
				c-5.479,0-9.922,4.443-9.922,9.922v71.933C246.078,196.129,250.52,200.572,255.999,200.572z"/>
			<path d="M304.556,337.422c-3.874-3.873-10.156-3.873-14.032,0c-3.874,3.876-3.874,10.156,0,14.032l50.864,50.864
				c1.937,1.937,4.476,2.906,7.016,2.906c2.54,0,5.079-0.969,7.016-2.906c3.874-3.876,3.874-10.156,0-14.032L304.556,337.422z"/>
			<path d="M207.444,337.422l-50.864,50.864c-3.874,3.876-3.874,10.156,0,14.032c1.937,1.937,4.476,2.906,7.016,2.906
				c2.539,0,5.079-0.969,7.016-2.906l50.864-50.864c3.874-3.876,3.874-10.156,0-14.032
				C217.602,333.55,211.32,333.549,207.444,337.422z"/>
			<path d="M411.307,219.204l-69.483,18.618c-5.293,1.418-8.434,6.858-7.016,12.152c1.188,4.433,5.197,7.357,9.578,7.357
				c0.85,0,1.714-0.11,2.575-0.34l69.483-18.618c5.292-1.418,8.434-6.858,7.016-12.152
				C422.04,220.928,416.607,217.789,411.307,219.204z"/>
			<path d="M167.613,257.33c4.38,0,8.39-2.923,9.578-7.357c1.418-5.293-1.723-10.733-7.016-12.152l-69.483-18.618
				c-5.295-1.416-10.733,1.724-12.152,7.016c-1.419,5.293,1.723,10.733,7.016,12.152l69.483,18.618
				C165.899,257.219,166.764,257.33,167.613,257.33z"/>
		</g>
	</g>
</g>
<g>
</g>
<g>
</g>
<g>
</g>
<g>
</g>
<g>
</g>
<g>
</g>
<g>
</g>
<g>
</g>
<g>
</g>
<g>
</g>
<g>
</g>
<g>
</g>
<g>
</g>
<g>
</g>
<g>
</g>
</svg>
